<svg width="132" height="42" viewBox="0 0 132 42" fill="none" xmlns="http://www.w3.org/2000/svg">
<path fill-rule="evenodd" clip-rule="evenodd" d="M81.4379 31.0131C74.1181 36.1722 63.5084 38.9248 54.3737 38.9248C41.5654 38.9248 30.0346 34.3949 21.3111 26.8607C20.6257 26.2683 21.2398 25.4608 22.0623 25.9222C31.4766 31.1599 43.1171 34.311 55.1413 34.311C63.2507 34.311 72.1716 32.7066 80.3742 29.3773C81.6134 28.874 82.6497 30.1533 81.4379 31.0131Z" fill="#8A8A8A"/>
<path fill-rule="evenodd" clip-rule="evenodd" d="M84.4789 27.685C83.5468 26.542 78.2941 27.1449 75.9364 27.4123C75.2181 27.4962 75.1084 26.8985 75.7554 26.4686C79.939 23.6531 86.8037 24.4658 87.6042 25.4095C88.4047 26.3585 87.3959 32.9384 83.4645 36.079C82.8614 36.5613 82.2857 36.3044 82.5544 35.6648C83.4371 33.5571 85.4165 28.8332 84.4789 27.685Z" fill="#8A8A8A"/>
<path fill-rule="evenodd" clip-rule="evenodd" d="M76.1042 6.59247V3.85564C76.1042 3.44145 76.4332 3.16357 76.828 3.16357H89.6418C90.0531 3.16357 90.382 3.44669 90.382 3.85564V6.19925C90.3766 6.59247 90.0311 7.10628 89.417 7.91894L82.7771 16.984C85.2444 16.9264 87.8489 17.2776 90.086 18.4835C90.5904 18.7561 90.7275 19.1546 90.7658 19.5478V22.4682C90.7658 22.8666 90.3053 23.3333 89.8228 23.0921C85.8805 21.1155 80.6442 20.9005 76.2852 23.113C75.8411 23.3437 75.375 22.8824 75.375 22.4839V19.7104C75.375 19.2647 75.3805 18.5045 75.8465 17.8281L83.5392 7.2793H76.8444C76.4332 7.2793 76.1042 7.00143 76.1042 6.59247Z" fill="#8A8A8A"/>
<path fill-rule="evenodd" clip-rule="evenodd" d="M29.3604 23.6685H25.462C25.0891 23.6423 24.793 23.3749 24.7656 23.0341V3.90255C24.7656 3.51982 25.1001 3.21572 25.5168 3.21572H29.152C29.5304 3.23144 29.8319 3.50933 29.8594 3.85536V6.35626H29.9306C30.8792 3.93925 32.6612 2.81201 35.0627 2.81201C37.5027 2.81201 39.027 3.93925 40.1236 6.35626C41.0667 3.93925 43.2105 2.81201 45.5079 2.81201C47.1419 2.81201 48.9293 3.4569 50.0204 4.90395C51.2541 6.51354 51.0019 8.8519 51.0019 10.9019L50.9964 22.9764C50.9964 23.3592 50.662 23.6685 50.2453 23.6685H46.3523C45.963 23.6423 45.6505 23.3435 45.6505 22.9764V12.8366C45.6505 12.0291 45.7272 10.0158 45.5408 9.25037C45.2502 7.96585 44.3784 7.60408 43.2489 7.60408C42.3058 7.60408 41.3189 8.20702 40.9186 9.17173C40.5184 10.1364 40.5567 11.7513 40.5567 12.8366V22.9764C40.5567 23.3592 40.2223 23.6685 39.8056 23.6685H35.9126C35.5178 23.6423 35.2108 23.3435 35.2108 22.9764L35.2053 12.8366C35.2053 10.7027 35.5727 7.56214 32.8037 7.56214C30.0019 7.56214 30.1116 10.624 30.1116 12.8366V22.9764C30.1116 23.3592 29.7771 23.6685 29.3604 23.6685Z" fill="#8A8A8A"/>
<path fill-rule="evenodd" clip-rule="evenodd" d="M101.413 2.81201C107.198 2.81201 110.329 7.56214 110.329 13.602C110.329 19.4374 106.869 24.067 101.413 24.067C95.733 24.067 92.6406 19.3169 92.6406 13.3976C92.6406 7.44155 95.7714 2.81201 101.413 2.81201ZM101.446 6.71802C98.5733 6.71802 98.3923 10.4615 98.3923 12.7946C98.3923 15.133 98.3539 20.1243 101.413 20.1243C104.435 20.1243 104.577 16.0977 104.577 13.644C104.577 12.0291 104.506 10.0997 103.996 8.56878C103.557 7.23708 102.686 6.71802 101.446 6.71802Z" fill="#8A8A8A"/>
<path fill-rule="evenodd" clip-rule="evenodd" d="M117.831 23.6685H113.949C113.56 23.6423 113.248 23.3435 113.248 22.9764L113.242 3.83963C113.275 3.48835 113.599 3.21572 113.993 3.21572H117.607C117.947 3.23144 118.226 3.45165 118.303 3.7505V6.67607H118.374C119.465 4.05984 120.995 2.81201 123.687 2.81201C125.436 2.81201 127.142 3.41495 128.238 5.06649C129.258 6.59743 129.258 9.17173 129.258 11.0225V23.0656C129.214 23.4011 128.891 23.6685 128.507 23.6685H124.598C124.241 23.6423 123.945 23.3906 123.907 23.0656V12.674C123.907 10.5821 124.159 7.52019 121.467 7.52019C120.518 7.52019 119.646 8.12838 119.213 9.05114C118.665 10.2203 118.594 11.3843 118.594 12.674V22.9764C118.588 23.3592 118.248 23.6685 117.831 23.6685Z" fill="#8A8A8A"/>
<path fill-rule="evenodd" clip-rule="evenodd" d="M65.8854 14.529C65.8854 15.9813 65.9238 17.1924 65.1561 18.4822C64.5366 19.5308 63.5496 20.1756 62.4585 20.1756C60.9616 20.1756 60.0843 19.0851 60.0843 17.4755C60.0843 14.2983 63.0616 13.7216 65.8854 13.7216V14.529ZM69.8167 23.615C69.559 23.8352 69.1862 23.851 68.8956 23.7042C67.6016 22.6765 67.3658 22.1994 66.6585 21.219C64.5201 23.3057 63.0013 23.9296 60.2324 23.9296C56.948 23.9296 54.3984 21.9949 54.3984 18.1204C54.3984 15.0952 56.1091 13.0347 58.5546 12.0281C60.671 11.1368 63.6264 10.9795 65.8854 10.7331V10.2507C65.8854 9.36465 65.9567 8.31606 65.4084 7.55059C64.9368 6.86376 64.0266 6.58064 63.2206 6.58064C61.7347 6.58064 60.4133 7.30941 60.0898 8.81938C60.024 9.15493 59.7663 9.48524 59.4099 9.50097L55.6321 9.11299C55.3141 9.04483 54.9577 8.79841 55.0509 8.33179C55.9172 3.94867 60.0624 2.62744 63.7689 2.62744C65.6661 2.62744 68.1444 3.10979 69.6412 4.48345C71.5384 6.17693 71.3574 8.43665 71.3574 10.8956V16.7048C71.3574 18.4507 72.1141 19.2162 72.8269 20.1599C73.0736 20.4955 73.1285 20.8992 72.8104 21.1508C72.0154 21.7852 70.6008 22.9649 69.8222 23.6255L69.8167 23.615Z" fill="#8A8A8A"/>
<path fill-rule="evenodd" clip-rule="evenodd" d="M14.7838 14.529C14.7838 15.9813 14.8222 17.1924 14.0546 18.4822C13.435 19.5308 12.4535 20.1756 11.3569 20.1756C9.86005 20.1756 8.98825 19.0851 8.98825 17.4755C8.98825 14.2983 11.9655 13.7216 14.7838 13.7216V14.529ZM18.7151 23.615C18.4574 23.8352 18.0846 23.851 17.794 23.7042C16.5 22.6765 16.2697 22.1994 15.5569 21.219C13.4185 23.3057 11.9052 23.9296 9.13081 23.9296C5.85196 23.9296 3.29688 21.9949 3.29688 18.1204C3.29688 15.0952 5.01306 13.0347 7.45301 12.0281C9.56945 11.1368 12.5248 10.9795 14.7838 10.7331V10.2507C14.7838 9.36465 14.8551 8.31606 14.3123 7.55059C13.8352 6.86376 12.9251 6.58064 12.1245 6.58064C10.6386 6.58064 9.31175 7.30941 8.98825 8.81938C8.92246 9.15493 8.66475 9.48524 8.31384 9.50097L4.53056 9.11299C4.21254 9.04483 3.86163 8.79841 3.94935 8.33179C4.82116 3.94867 8.96084 2.62744 12.6674 2.62744C14.5645 2.62744 17.0428 3.10979 18.5397 4.48345C20.4368 6.17693 20.2559 8.43665 20.2559 10.8956V16.7048C20.2559 18.4507 21.0125 19.2162 21.7253 20.1599C21.9775 20.4955 22.0324 20.8992 21.7143 21.1508C20.9193 21.7852 19.5047 22.9649 18.7261 23.6255L18.7151 23.615Z" fill="#8A8A8A"/>
</svg>
