<svg width="56" height="57" viewBox="0 0 56 57" fill="none" xmlns="http://www.w3.org/2000/svg">
<circle cx="28" cy="28.4531" r="27.5" fill="#FAFAFA" stroke="#E3E3E3"/>
<path d="M36.75 33.7031C36.1269 33.7064 35.5163 33.8778 34.9825 34.1993L31.6461 30.862C32.1215 30.1486 32.3751 29.3104 32.3751 28.4531C32.3751 27.5958 32.1215 26.7577 31.6461 26.0443L33.8748 23.8156C34.4385 24.0872 35.0802 24.1504 35.6861 23.9942C36.2921 23.8379 36.8232 23.4722 37.1853 22.9619C37.5474 22.4516 37.7172 21.8295 37.6647 21.206C37.6121 20.5824 37.3405 19.9976 36.898 19.5551C36.4555 19.1126 35.8707 18.8411 35.2472 18.7885C34.6236 18.7359 34.0016 18.9057 33.4912 19.2678C32.9809 19.63 32.6152 20.161 32.459 20.767C32.3027 21.3729 32.3659 22.0146 32.6375 22.5784L30.4089 24.807C29.6954 24.3316 28.8573 24.078 28 24.078C27.1427 24.078 26.3046 24.3316 25.5911 24.807L22.2539 21.4698C22.5752 20.9362 22.7466 20.3259 22.75 19.7031C22.75 19.0109 22.5447 18.3342 22.1601 17.7586C21.7756 17.1831 21.2289 16.7345 20.5894 16.4695C19.9499 16.2046 19.2461 16.1353 18.5672 16.2704C17.8883 16.4054 17.2646 16.7388 16.7751 17.2283C16.2856 17.7177 15.9523 18.3414 15.8173 19.0203C15.6822 19.6992 15.7515 20.403 16.0164 21.0425C16.2813 21.6821 16.7299 22.2287 17.3055 22.6133C17.8811 22.9979 18.5578 23.2031 19.25 23.2031C19.8731 23.1999 20.4837 23.0285 21.0175 22.707L24.3539 26.0443C23.8785 26.7577 23.6249 27.5958 23.6249 28.4531C23.6249 29.3104 23.8785 30.1486 24.3539 30.862L21.0166 34.1993C20.4831 33.878 19.8728 33.7066 19.25 33.7031C18.5578 33.7031 17.8811 33.9084 17.3055 34.293C16.7299 34.6776 16.2813 35.2242 16.0164 35.8637C15.7515 36.5033 15.6822 37.207 15.8173 37.8859C15.9523 38.5649 16.2856 39.1885 16.7751 39.678C17.2646 40.1675 17.8883 40.5008 18.5672 40.6359C19.2461 40.7709 19.9499 40.7016 20.5894 40.4367C21.2289 40.1718 21.7756 39.7232 22.1601 39.1476C22.5447 38.5721 22.75 37.8954 22.75 37.2031C22.7468 36.58 22.5754 35.9694 22.2539 35.4356L25.5911 32.0993C26.0565 32.4094 26.5773 32.6269 27.125 32.7398V35.6141C26.5412 35.8205 26.0491 36.2267 25.7358 36.7608C25.4225 37.2949 25.3081 37.9226 25.4128 38.5329C25.5175 39.1432 25.8346 39.6968 26.308 40.096C26.7815 40.4951 27.3808 40.714 28 40.714C28.6192 40.714 29.2185 40.4951 29.692 40.096C30.1654 39.6968 30.4825 39.1432 30.5872 38.5329C30.6919 37.9226 30.5775 37.2949 30.2642 36.7608C29.9509 36.2267 29.4588 35.8205 28.875 35.6141V32.7398C29.4227 32.6269 29.9435 32.4094 30.4089 32.0993L33.7461 35.4365C33.4248 35.97 33.2534 36.5803 33.25 37.2031C33.25 37.8954 33.4553 38.5721 33.8399 39.1476C34.2244 39.7232 34.7711 40.1718 35.4106 40.4367C36.0502 40.7016 36.7539 40.7709 37.4328 40.6359C38.1118 40.5008 38.7354 40.1675 39.2249 39.678C39.7144 39.1885 40.0477 38.5649 40.1828 37.8859C40.3178 37.207 40.2485 36.5033 39.9836 35.8637C39.7187 35.2242 39.2701 34.6776 38.6945 34.293C38.1189 33.9084 37.4422 33.7031 36.75 33.7031ZM28 25.8281C28.5192 25.8281 29.0267 25.9821 29.4584 26.2705C29.8901 26.559 30.2265 26.9689 30.4252 27.4486C30.6239 27.9282 30.6758 28.456 30.5746 28.9652C30.4733 29.4744 30.2233 29.9422 29.8562 30.3093C29.489 30.6764 29.0213 30.9264 28.5121 31.0277C28.0029 31.129 27.4751 31.077 26.9955 30.8783C26.5158 30.6796 26.1058 30.3432 25.8174 29.9115C25.529 29.4798 25.375 28.9723 25.375 28.4531C25.3757 27.7571 25.6525 27.0899 26.1446 26.5977C26.6367 26.1056 27.304 25.8288 28 25.8281ZM17.5 19.7031C17.5 19.357 17.6026 19.0187 17.7949 18.7309C17.9872 18.4431 18.2605 18.2188 18.5803 18.0863C18.9001 17.9539 19.2519 17.9192 19.5914 17.9868C19.9309 18.0543 20.2427 18.2209 20.4874 18.4657C20.7322 18.7104 20.8989 19.0223 20.9664 19.3617C21.0339 19.7012 20.9992 20.0531 20.8668 20.3728C20.7343 20.6926 20.51 20.9659 20.2222 21.1582C19.9345 21.3505 19.5961 21.4531 19.25 21.4531C18.786 21.4527 18.3412 21.2681 18.0131 20.9401C17.685 20.612 17.5005 20.1671 17.5 19.7031ZM19.25 38.9531C18.9039 38.9531 18.5655 38.8505 18.2778 38.6582C17.99 38.4659 17.7657 38.1926 17.6332 37.8728C17.5008 37.5531 17.4661 37.2012 17.5336 36.8617C17.6012 36.5223 17.7678 36.2104 18.0126 35.9657C18.2573 35.721 18.5691 35.5543 18.9086 35.4868C19.2481 35.4192 19.5999 35.4539 19.9197 35.5863C20.2395 35.7188 20.5128 35.9431 20.7051 36.2309C20.8974 36.5187 21 36.857 21 37.2031C20.9995 37.6671 20.815 38.112 20.4869 38.4401C20.1588 38.7681 19.714 38.9527 19.25 38.9531ZM36.75 38.9531C36.4039 38.9531 36.0655 38.8505 35.7778 38.6582C35.49 38.4659 35.2657 38.1926 35.1332 37.8728C35.0008 37.5531 34.9661 37.2012 35.0336 36.8617C35.1012 36.5223 35.2678 36.2104 35.5126 35.9657C35.7573 35.721 36.0691 35.5543 36.4086 35.4868C36.7481 35.4192 37.0999 35.4539 37.4197 35.5863C37.7395 35.7188 38.0128 35.9431 38.2051 36.2309C38.3974 36.5187 38.5 36.857 38.5 37.2031C38.4993 37.667 38.3147 38.1118 37.9867 38.4398C37.6586 38.7678 37.2139 38.9524 36.75 38.9531Z" fill="#12141D"/>
</svg>
