<svg width="56" height="57" viewBox="0 0 56 57" fill="none" xmlns="http://www.w3.org/2000/svg">
<circle cx="28" cy="28.4531" r="27.5" fill="#FAFAFA" stroke="#E3E3E3"/>
<g clip-path="url(#clip0_1_22746)">
<path d="M38.9375 18.1282C38.6366 17.9336 38.2926 17.8158 37.9356 17.7853C37.5786 17.7548 37.2195 17.8124 36.89 17.9532L26.0925 22.2057C25.8369 22.3097 25.5635 22.3632 25.2875 22.3632H18.375C17.7948 22.3632 17.2384 22.5937 16.8282 23.0039C16.418 23.4141 16.1875 23.9705 16.1875 24.5507V24.7257H14V29.9757H16.1875V30.2032C16.2012 30.7742 16.4377 31.3172 16.8465 31.7162C17.2552 32.1151 17.8038 32.3384 18.375 32.3382L21 37.9032C21.1777 38.2779 21.4576 38.595 21.8074 38.8178C22.1572 39.0407 22.5627 39.1604 22.9775 39.1632H24.08C24.6571 39.1586 25.209 38.9261 25.6155 38.5163C26.022 38.1066 26.25 37.5528 26.25 36.9757V32.5482L36.89 36.8007C37.1517 36.9048 37.4308 36.9583 37.7125 36.9582C38.1495 36.9511 38.575 36.8174 38.9375 36.5732C39.2253 36.3788 39.4628 36.1188 39.6301 35.8144C39.7975 35.5101 39.89 35.1703 39.9 34.8232V19.9307C39.8984 19.5746 39.8099 19.2243 39.6421 18.9101C39.4744 18.596 39.2325 18.3276 38.9375 18.1282ZM24.0625 24.5507V30.2032H18.375V24.5507H24.0625ZM24.0625 36.9757H22.96L20.8075 32.3382H24.0625V36.9757ZM26.8975 30.4657C26.6897 30.3595 26.4731 30.2717 26.25 30.2032V24.4282C26.4709 24.3826 26.6875 24.3182 26.8975 24.2357L37.7125 19.9307V34.7707L26.8975 30.4657ZM39.9525 25.1632V29.5382C40.5327 29.5382 41.0891 29.3077 41.4993 28.8975C41.9095 28.4872 42.14 27.9308 42.14 27.3507C42.14 26.7705 41.9095 26.2141 41.4993 25.8039C41.0891 25.3937 40.5327 25.1632 39.9525 25.1632Z" fill="#12141D"/>
</g>
<defs>
<clipPath id="clip0_1_22746">
<rect width="28" height="28" fill="white" transform="translate(14 14.4531)"/>
</clipPath>
</defs>
</svg>
