<svg width="51" height="51" viewBox="0 0 51 51" fill="none" xmlns="http://www.w3.org/2000/svg">
<circle opacity="0.2" cx="25.7266" cy="25.9258" r="25" fill="#BCACF2"/>
<path d="M35.9408 25.1401C33.4411 25.1372 31.0446 24.1429 29.277 22.3754C27.5094 20.6078 26.5151 18.2112 26.5123 15.7115C26.5123 15.5031 26.4295 15.3033 26.2821 15.1559C26.1348 15.0086 25.9349 14.9258 25.7266 14.9258C25.5182 14.9258 25.3183 15.0086 25.171 15.1559C25.0236 15.3033 24.9408 15.5031 24.9408 15.7115C24.938 18.2112 23.9437 20.6078 22.1761 22.3754C20.4086 24.1429 18.012 25.1372 15.5123 25.1401C15.3039 25.1401 15.104 25.2228 14.9567 25.3702C14.8093 25.5175 14.7266 25.7174 14.7266 25.9258C14.7266 26.1342 14.8093 26.334 14.9567 26.4814C15.104 26.6287 15.3039 26.7115 15.5123 26.7115C18.012 26.7143 20.4086 27.7086 22.1761 29.4762C23.9437 31.2438 24.938 33.6403 24.9408 36.1401C24.9408 36.3485 25.0236 36.5483 25.171 36.6957C25.3183 36.843 25.5182 36.9258 25.7266 36.9258C25.9349 36.9258 26.1348 36.843 26.2821 36.6957C26.4295 36.5483 26.5123 36.3485 26.5123 36.1401C26.5151 33.6403 27.5094 31.2438 29.277 29.4762C31.0446 27.7086 33.4411 26.7143 35.9408 26.7115C36.1492 26.7115 36.3491 26.6287 36.4964 26.4814C36.6438 26.334 36.7266 26.1342 36.7266 25.9258C36.7266 25.7174 36.6438 25.5175 36.4964 25.3702C36.3491 25.2228 36.1492 25.1401 35.9408 25.1401ZM25.7266 32.0808C25.1709 30.6915 24.3389 29.4296 23.2808 28.3715C22.2228 27.3135 20.9608 26.4814 19.5715 25.9258C20.9608 25.3702 22.2228 24.5381 23.2808 23.48C24.3389 22.422 25.1709 21.16 25.7266 19.7707C26.2822 21.16 27.1143 22.422 28.1723 23.48C29.2303 24.5381 30.4923 25.3702 31.8816 25.9258C30.4923 26.4814 29.2303 27.3135 28.1723 28.3715C27.1143 29.4296 26.2822 30.6915 25.7266 32.0808Z" fill="#6F4BE5"/>
</svg>
