<svg width="36" height="36" viewBox="0 0 36 36" fill="none" xmlns="http://www.w3.org/2000/svg">
<circle cx="18" cy="18" r="18" fill="#4B4B4B"/>
<path fill-rule="evenodd" clip-rule="evenodd" d="M18.7766 9.29102C14.1597 9.29102 10.4453 13.0054 10.4453 17.6223C10.4453 21.302 12.8406 24.4262 16.1384 25.537C16.5549 25.6065 16.6938 25.3635 16.6938 25.1205C16.6938 24.9122 16.6938 24.3915 16.6938 23.6972C14.368 24.2179 13.882 22.5864 13.882 22.5864C13.5001 21.6144 12.9447 21.3714 12.9447 21.3714C12.181 20.8507 13.0141 20.8507 13.0141 20.8507C13.8473 20.9201 14.2985 21.7185 14.2985 21.7185C15.0275 23.0029 16.2425 22.6211 16.7285 22.4128C16.7979 21.8574 17.0062 21.5103 17.2492 21.302C15.4094 21.0937 13.4654 20.3647 13.4654 17.171C13.4654 16.2685 13.7778 15.5048 14.3332 14.9494C14.2638 14.7411 13.9514 13.9079 14.4027 12.7277C14.4027 12.7277 15.097 12.5194 16.6938 13.5955C17.3533 13.4219 18.0823 13.3178 18.7766 13.3178C19.4709 13.3178 20.1999 13.4219 20.8594 13.5955C22.4563 12.5194 23.1505 12.7277 23.1505 12.7277C23.6018 13.8732 23.3241 14.7064 23.22 14.9494C23.7407 15.5395 24.0878 16.2685 24.0878 17.171C24.0878 20.3647 22.1438 21.059 20.2693 21.2673C20.5817 21.5103 20.8247 22.031 20.8247 22.7947C20.8247 23.9055 20.8247 24.8081 20.8247 25.0858C20.8247 25.294 20.9636 25.5718 21.4148 25.5023C24.7127 24.4262 27.1079 21.302 27.1079 17.6223C27.1079 13.0054 23.3935 9.29102 18.7766 9.29102Z" fill="white"/>
</svg>
