<svg width="195" height="40" viewBox="0 0 195 40" fill="none" xmlns="http://www.w3.org/2000/svg">
<g clip-path="url(#clip0_1_23034)">
<path d="M39.2912 2.40504C34.6524 -0.426624 28.5456 0.248021 23.099 3.59167C17.6694 0.248021 11.5588 -0.426624 6.92569 2.40504C-0.403278 6.87987 -1.29433 18.4043 4.93737 28.1469C9.53074 35.3295 16.714 39.5382 23.1084 39.4606C29.5028 39.5382 36.6861 35.3295 41.2795 28.1469C47.5036 18.4043 46.6201 6.87987 39.2912 2.40504ZM8.30673 26.0897C7.02177 24.0995 6.05228 21.9309 5.43114 19.6575C4.87928 17.684 4.66828 15.6344 4.80683 13.593C5.08493 9.99248 6.58516 7.18854 9.02941 5.69693C11.4737 4.20532 14.7049 4.11475 18.1462 5.44925C18.6626 5.65072 19.1734 5.88361 19.6804 6.14053C17.7681 7.8441 16.1053 9.79708 14.739 11.9443C10.9553 17.859 9.80127 24.441 11.1218 29.6884C10.0689 28.5787 9.12626 27.3737 8.30673 26.0897ZM40.7876 19.6556C40.1657 21.9288 39.1962 24.0973 37.912 26.0878C37.0918 27.3737 36.1493 28.581 35.097 29.6939C36.2775 24.9899 35.4754 19.2268 32.5808 13.8222C32.4874 13.6422 32.3202 13.5093 32.1208 13.4565C31.9214 13.4037 31.7084 13.4358 31.5347 13.545L22.5106 19.053C22.3444 19.1544 22.2262 19.3162 22.1822 19.5027C22.1382 19.6893 22.172 19.8852 22.276 20.0475L23.6003 22.1157C23.7037 22.278 23.8689 22.3934 24.0596 22.4364C24.2502 22.4794 24.4505 22.4465 24.6162 22.3449L30.4658 18.7739C30.655 19.3284 30.8441 19.883 30.986 20.4375C31.5378 22.4084 31.7494 24.4555 31.6122 26.4945C31.3341 30.0932 29.8339 32.8971 27.3897 34.3906C26.1289 35.1437 24.6843 35.5522 23.2068 35.5735C23.1746 35.5735 23.1406 35.5735 23.1084 35.5735H23.0195C21.5419 35.5527 20.0972 35.1441 18.8367 34.3906C16.3905 32.8971 14.8903 30.0932 14.6122 26.4945C14.4745 24.4532 14.6855 22.4037 15.2365 20.4301C16.5044 15.864 19.1253 11.7658 22.7698 8.65058C24.3415 7.30275 26.1316 6.21964 28.0669 5.44556C31.4987 4.11105 34.7356 4.19977 37.1818 5.69323C39.6279 7.18669 41.1263 9.98878 41.4044 13.5893C41.5447 15.6309 41.3363 17.681 40.7876 19.6556ZM87.3684 15.3545C82.6236 15.3545 78.7889 18.9736 78.7889 23.5778C78.7889 28.1506 82.6236 31.7105 87.3684 31.7105C92.1452 31.7105 95.98 28.1561 95.98 23.5778C95.98 18.9754 92.1509 15.3564 87.3684 15.3564V15.3545ZM87.3684 27.4112C85.1814 27.4112 83.5166 25.683 83.5166 23.5464C83.5166 21.4097 85.1814 19.6556 87.3684 19.6556C89.5875 19.6556 91.2523 21.4152 91.2523 23.5519C91.2523 25.6886 89.5875 27.4186 87.3684 27.4186V27.4112ZM106.678 9.03861H97.9475C97.7569 9.03516 97.5731 9.10769 97.4385 9.23955C97.3039 9.37142 97.2301 9.55121 97.2343 9.7374V30.5331C97.2205 30.7256 97.2898 30.9149 97.4252 31.0553C97.5607 31.1957 97.75 31.2744 97.9475 31.2725H106.678C113.665 31.2725 118.519 26.7329 118.519 20.1288C118.519 13.484 113.665 9.03861 106.678 9.03861ZM106.885 26.8808H102.108V13.4193H106.885C110.751 13.4193 113.417 16.2454 113.417 20.1195C113.417 23.929 110.751 26.8808 106.885 26.8808ZM135.898 15.8018H132.615C132.239 15.8309 131.946 16.132 131.934 16.5005V17.4524C131.187 16.2454 129.498 15.3564 127.394 15.3564C123.3 15.3564 119.465 18.4985 119.465 23.5168C119.465 28.5073 123.266 31.7068 127.362 31.7068C129.473 31.7068 131.196 30.8196 131.944 29.6126V30.5959C131.946 30.9629 132.249 31.2602 132.625 31.2632H135.907C136.09 31.2673 136.266 31.1983 136.395 31.0723C136.524 30.9462 136.594 30.7741 136.59 30.5959V16.5005C136.596 16.3174 136.525 16.1399 136.395 16.0083C136.264 15.8767 136.085 15.8022 135.898 15.8018ZM128.262 27.4464C126.089 27.4464 124.456 25.8143 124.456 23.5501C124.456 21.2858 126.089 19.6556 128.262 19.6556C130.436 19.6556 132.069 21.284 132.069 23.5482C132.069 25.8124 130.438 27.4445 128.262 27.4445V27.4464ZM154.322 9.03873H151.04C150.854 9.03326 150.674 9.10085 150.54 9.22631C150.406 9.35177 150.329 9.5246 150.327 9.70598V17.3895C149.57 16.2454 147.856 15.3564 145.713 15.3564C141.649 15.3564 137.88 18.4985 137.88 23.5168C137.88 28.5073 141.681 31.7068 145.777 31.7068C147.888 31.7068 149.481 30.8196 150.359 29.6126V30.5959C150.36 30.9633 150.664 31.2612 151.04 31.2632H154.322C154.505 31.2678 154.681 31.199 154.81 31.0728C154.939 30.9467 155.01 30.7743 155.005 30.5959V9.70968C155.011 9.53071 154.941 9.35731 154.812 9.23034C154.683 9.10338 154.505 9.03406 154.322 9.03873ZM146.687 27.4852C144.523 27.4852 142.903 25.8365 142.903 23.5482C142.903 21.26 144.528 19.6112 146.687 19.6112C148.845 19.6112 150.47 21.26 150.47 23.5482C150.47 25.8365 148.853 27.4852 146.687 27.4852ZM172.743 9.03873H169.466C169.281 9.03327 169.1 9.10079 168.966 9.2262C168.832 9.35161 168.754 9.52443 168.751 9.70598V17.3895C168.004 16.2454 166.281 15.3564 164.137 15.3564C160.073 15.3564 156.305 18.4985 156.305 23.5168C156.305 28.5073 160.107 31.7068 164.201 31.7068C166.315 31.7068 167.906 30.8196 168.783 29.6126V30.5959C168.785 30.9636 169.09 31.2612 169.466 31.2632H172.743C172.925 31.2678 173.102 31.199 173.231 31.0728C173.359 30.9465 173.429 30.7741 173.424 30.5959V9.70968C173.43 9.53088 173.361 9.35747 173.232 9.23044C173.103 9.10341 172.926 9.03404 172.743 9.03873ZM165.108 27.4852C162.941 27.4852 161.324 25.8365 161.324 23.5482C161.324 21.26 162.949 19.6112 165.108 19.6112C167.266 19.6112 168.891 21.26 168.891 23.5482C168.891 25.8365 167.278 27.4852 165.113 27.4852H165.108ZM190.715 16.8831L185.818 33.2945C184.872 36.2149 182.762 37.9616 179.48 37.9616C177.987 37.9616 176.629 37.664 175.564 37.0688C174.943 36.7232 174.429 36.4071 174.429 35.9007C174.429 35.5865 174.533 35.4238 174.722 35.1299L175.694 33.7067C175.969 33.3093 176.171 33.1799 176.466 33.1799C176.7 33.1855 176.926 33.2624 177.113 33.3999C177.724 33.7862 178.292 34.1189 179.156 34.1189C180.167 34.1189 180.938 33.8028 181.355 32.6273L181.775 31.265H179.792C179.304 31.265 179.035 30.9804 178.914 30.5978L174.531 16.8831C174.368 16.3434 174.518 15.8037 175.329 15.8037H178.782C179.204 15.8037 179.499 15.9441 179.684 16.5338L182.921 27.5776L185.948 16.5338C186.045 16.153 186.306 15.8037 186.826 15.8037H190.101C190.746 15.8018 190.941 16.2454 190.715 16.8831ZM77.5517 21.7646V30.5312C77.5547 30.7243 77.4776 30.9104 77.3378 31.0469C77.1981 31.1835 77.0076 31.2588 76.81 31.2558H74.1009C73.9031 31.2593 73.7124 31.1841 73.5725 31.0475C73.4327 30.9108 73.3557 30.7245 73.3593 30.5312V28.2301C71.6396 30.352 68.6487 31.6883 65.2661 31.6883C58.9133 31.6883 53.9491 27.0194 53.9491 20.3728C53.9491 13.4655 59.3087 8.70418 66.0795 8.70418C71.0778 8.70418 75.0733 10.8039 76.8479 15.0274C76.8976 15.139 76.9252 15.2587 76.9292 15.3804C76.9292 15.58 76.7949 15.7316 76.3617 15.8776L73.1985 17.0679C73.0077 17.1452 72.7939 17.1485 72.6007 17.0772C72.4313 16.9795 72.2986 16.831 72.2223 16.6539C71.0872 14.5449 69.0667 13.1125 65.9566 13.1125C61.9232 13.1125 59.0344 16.19 59.0344 20.1805C59.0344 24.0491 61.4937 27.2301 66.072 27.2301C68.4803 27.2301 70.4005 26.1211 71.2953 24.903H68.4387C68.2411 24.9061 68.0506 24.8307 67.9109 24.6942C67.7711 24.5576 67.694 24.3716 67.6971 24.1785V21.796C67.694 21.6029 67.7711 21.4169 67.9109 21.2803C68.0506 21.1438 68.2411 21.0684 68.4387 21.0714H76.81C77.004 21.0618 77.1935 21.1306 77.3338 21.2618C77.4741 21.393 77.5529 21.5748 77.5517 21.7646ZM190.804 12.5561V12.3436C190.804 12.3287 190.81 12.3142 190.82 12.3029C190.83 12.2934 190.845 12.2882 190.859 12.2881H192.242C192.257 12.2876 192.271 12.293 192.282 12.3029C192.292 12.3142 192.297 12.3287 192.297 12.3436V12.5561C192.297 12.5704 192.292 12.5842 192.282 12.5949C192.271 12.6049 192.257 12.6102 192.242 12.6097H191.737V13.9424C191.736 13.9726 191.711 13.9969 191.68 13.9978H191.419C191.405 13.9978 191.391 13.9917 191.381 13.9812C191.371 13.9711 191.364 13.9571 191.364 13.9424V12.6097H190.859C190.844 12.6109 190.83 12.6056 190.819 12.5953C190.809 12.585 190.803 12.5707 190.804 12.5561ZM193.222 12.3362L193.601 13.192L193.979 12.3362C193.985 12.321 193.995 12.3081 194.009 12.2992C194.025 12.2912 194.042 12.2874 194.06 12.2881H194.499C194.514 12.2871 194.528 12.2921 194.538 12.302C194.549 12.3119 194.555 12.3256 194.554 12.3399V13.9442C194.555 13.9584 194.55 13.9724 194.54 13.9826C194.53 13.9929 194.516 13.9984 194.501 13.9978H194.255C194.24 13.9983 194.226 13.993 194.215 13.983C194.205 13.973 194.199 13.9587 194.2 13.9442V12.7336L193.793 13.6134C193.788 13.63 193.777 13.6447 193.763 13.6559C193.748 13.6643 193.73 13.6682 193.712 13.667H193.512C193.494 13.6679 193.477 13.6641 193.462 13.6559C193.448 13.6452 193.437 13.6303 193.432 13.6134L193.027 12.7336V13.9442C193.027 13.9585 193.022 13.9723 193.012 13.983C193.002 13.9921 192.988 13.9973 192.974 13.9978H192.723C192.709 13.998 192.696 13.9926 192.687 13.983C192.676 13.973 192.67 13.9587 192.672 13.9442V12.3399C192.671 12.3256 192.677 12.3119 192.687 12.302C192.698 12.2921 192.712 12.2871 192.726 12.2881H193.152C193.169 12.2877 193.186 12.2915 193.201 12.2992C193.212 12.3094 193.219 12.3222 193.222 12.3362Z" fill="#8A8A8A"/>
</g>
<defs>
<clipPath id="clip0_1_23034">
<rect width="194" height="39" fill="white" transform="translate(0.546875 0.626465)"/>
</clipPath>
</defs>
</svg>
