<svg width="112" height="35" viewBox="0 0 112 35" fill="none" xmlns="http://www.w3.org/2000/svg">
<path d="M15.1374 12.4871V16.0898H24.362C24.1171 18.0828 23.3824 19.6159 22.2395 20.6123C20.9334 21.8388 18.8109 23.2185 15.1374 23.2185C9.5047 23.2185 5.0965 18.926 5.0965 13.6369C5.0965 8.34789 9.42307 4.05532 15.1374 4.05532C18.1578 4.05532 20.4436 5.20512 22.0762 6.66152L24.7701 4.13198C22.4844 2.06235 19.3823 0.452637 15.1374 0.452637C7.38224 0.452637 0.851562 6.35491 0.851562 13.6369C0.851562 20.919 7.38224 26.8212 15.1374 26.8212C19.3007 26.8212 22.4844 25.5181 24.9334 23.1419C27.4641 20.7657 28.2804 17.3929 28.2804 14.7101C28.2804 13.8669 28.1988 13.1004 28.1171 12.4871H15.1374Z" fill="#8A8A8A"/>
<path d="M39.1039 9.49854C34.1242 9.49854 29.9609 13.1012 29.9609 18.007C29.9609 22.9128 34.0426 26.5155 39.1039 26.5155C44.1651 26.5155 48.2468 22.9894 48.2468 18.0837C48.2468 13.1012 44.1651 9.49854 39.1039 9.49854ZM39.1039 23.2194C36.3283 23.2194 33.961 21.0731 33.961 18.0837C33.961 15.0175 36.3283 12.9479 39.1039 12.9479C41.8794 12.9479 44.2468 15.0175 44.2468 18.0837C44.2468 21.0731 41.8794 23.2194 39.1039 23.2194Z" fill="#8A8A8A"/>
<path d="M83.3601 11.4139H83.1969C82.2989 10.4174 80.5846 9.49756 78.3805 9.49756C73.809 9.49756 69.8906 13.1769 69.8906 18.006C69.8906 22.7585 73.809 26.5145 78.3805 26.5145C80.5846 26.5145 82.2989 25.5947 83.1969 24.5982H83.3601V25.8246C83.3601 29.044 81.4826 30.8071 78.5438 30.8071C76.0948 30.8071 74.6254 29.1974 73.9723 27.7409L70.5437 29.1207C71.5233 31.3436 74.2172 34.1798 78.6254 34.1798C83.2785 34.1798 87.2785 31.5736 87.2785 25.2881V9.95748H83.5234V11.4139H83.3601ZM78.7887 23.2184C76.0131 23.2184 73.9723 20.9955 73.9723 18.0827C73.9723 15.0932 76.0948 12.9469 78.7887 12.9469C81.4826 12.9469 83.605 15.1699 83.605 18.1593C83.6867 21.0721 81.5642 23.2184 78.7887 23.2184Z" fill="#8A8A8A"/>
<path d="M59.0648 9.49756C54.0852 9.49756 49.9219 13.1002 49.9219 18.006C49.9219 22.9118 54.0035 26.5145 59.0648 26.5145C64.1261 26.5145 68.2078 22.9885 68.2078 18.0827C68.2078 13.1002 64.1261 9.49756 59.0648 9.49756ZM59.0648 23.2184C56.2893 23.2184 53.9219 21.0721 53.9219 18.0827C53.9219 15.0166 56.2893 12.9469 59.0648 12.9469C61.8404 12.9469 64.2077 15.0166 64.2077 18.0827C64.2077 21.0721 61.8404 23.2184 59.0648 23.2184Z" fill="#8A8A8A"/>
<path d="M88.9609 0.836426H92.8793V26.5918H88.9609V0.836426Z" fill="#8A8A8A"/>
<path d="M103.534 23.2184C101.494 23.2184 100.106 22.3752 99.1262 20.6122L111.29 15.9364L110.881 14.9399C110.147 13.0236 107.779 9.49756 103.126 9.49756C98.4731 9.49756 94.5547 12.9469 94.5547 18.006C94.5547 22.7585 98.3915 26.5145 103.534 26.5145C107.698 26.5145 110.065 24.1383 111.126 22.7585L108.024 20.8422C106.963 22.2986 105.575 23.2184 103.534 23.2184ZM103.289 12.717C104.922 12.717 106.31 13.4835 106.718 14.5566L98.5547 17.7761C98.4731 14.25 101.249 12.717 103.289 12.717Z" fill="#8A8A8A"/>
</svg>
