<svg width="36" height="36" viewBox="0 0 36 36" fill="none" xmlns="http://www.w3.org/2000/svg">
<circle cx="18" cy="18" r="18" fill="#4B4B4B"/>
<path d="M17.9987 10.8604C20.3242 10.8604 20.5996 10.8691 21.5183 10.911C22.0706 10.9178 22.6177 11.0192 23.1358 11.2109C23.5115 11.3558 23.8527 11.5777 24.1374 11.8624C24.4221 12.1472 24.6441 12.4884 24.789 12.8641C24.9806 13.3821 25.0821 13.9292 25.0888 14.4816C25.1303 15.4002 25.1394 15.6756 25.1394 18.0011C25.1394 20.3266 25.1307 20.602 25.0888 21.5206C25.0821 22.073 24.9806 22.6201 24.789 23.1382C24.6441 23.5139 24.4221 23.855 24.1374 24.1398C23.8527 24.4245 23.5115 24.6464 23.1358 24.7913C22.6177 24.983 22.0706 25.0844 21.5183 25.0912C20.6 25.1327 20.3246 25.1418 17.9987 25.1418C15.6728 25.1418 15.3974 25.1331 14.4792 25.0912C13.9269 25.0844 13.3798 24.983 12.8617 24.7913C12.486 24.6464 12.1448 24.4245 11.8601 24.1398C11.5753 23.855 11.3534 23.5139 11.2085 23.1382C11.0168 22.6201 10.9154 22.073 10.9086 21.5206C10.8672 20.602 10.858 20.3266 10.858 18.0011C10.858 15.6756 10.8668 15.4002 10.9086 14.4816C10.9154 13.9292 11.0168 13.3821 11.2085 12.8641C11.3534 12.4884 11.5753 12.1472 11.8601 11.8624C12.1448 11.5777 12.486 11.3558 12.8617 11.2109C13.3798 11.0192 13.9269 10.9178 14.4792 10.911C15.3979 10.8695 15.6733 10.8604 17.9987 10.8604ZM17.9987 9.29102C15.6347 9.29102 15.3369 9.30097 14.4079 9.34327C13.685 9.35765 12.9698 9.49452 12.2927 9.74807C11.7118 9.96691 11.1857 10.3099 10.751 10.753C10.3075 11.1878 9.96427 11.7142 9.74528 12.2954C9.49174 12.9726 9.35487 13.6878 9.34049 14.4106C9.29902 15.3388 9.28906 15.6366 9.28906 18.0007C9.28906 20.3647 9.29902 20.6625 9.34132 21.5916C9.3557 22.3145 9.49257 23.0297 9.74611 23.7068C9.96485 24.2879 10.3078 24.8143 10.751 25.2492C11.1859 25.6924 11.7123 26.0354 12.2935 26.2541C12.9706 26.5077 13.6858 26.6446 14.4087 26.6589C15.3377 26.7004 15.6343 26.7112 17.9996 26.7112C20.3649 26.7112 20.6614 26.7012 21.5904 26.6589C22.3133 26.6446 23.0285 26.5077 23.7057 26.2541C24.284 26.0299 24.8093 25.6875 25.2478 25.2487C25.6863 24.8099 26.0284 24.2845 26.2522 23.7059C26.5057 23.0288 26.6426 22.3136 26.657 21.5907C26.6985 20.6625 26.7084 20.3647 26.7084 18.0007C26.7084 15.6366 26.6985 15.3388 26.6562 14.4098C26.6418 13.6869 26.5049 12.9717 26.2514 12.2946C26.0326 11.7135 25.6897 11.1871 25.2464 10.7522C24.8115 10.3089 24.2851 9.96598 23.704 9.74724C23.0269 9.49369 22.3117 9.35682 21.5888 9.34244C20.6606 9.30097 20.3628 9.29102 17.9987 9.29102Z" fill="white"/>
<path d="M17.9961 13.5312C17.1115 13.5312 16.2467 13.7936 15.5112 14.285C14.7757 14.7765 14.2024 15.475 13.8639 16.2923C13.5254 17.1095 13.4368 18.0088 13.6094 18.8764C13.782 19.744 14.2079 20.541 14.8334 21.1665C15.459 21.792 16.2559 22.218 17.1235 22.3906C17.9911 22.5631 18.8904 22.4746 19.7077 22.136C20.5249 21.7975 21.2235 21.2243 21.7149 20.4887C22.2064 19.7532 22.4687 18.8885 22.4687 18.0039C22.4687 16.8177 21.9975 15.68 21.1587 14.8413C20.3199 14.0025 19.1823 13.5312 17.9961 13.5312ZM17.9961 20.9071C17.4219 20.9071 16.8606 20.7368 16.3831 20.4178C15.9057 20.0988 15.5336 19.6454 15.3138 19.1149C15.0941 18.5844 15.0366 18.0007 15.1486 17.4375C15.2606 16.8743 15.5372 16.357 15.9432 15.951C16.3492 15.545 16.8665 15.2685 17.4297 15.1564C17.9928 15.0444 18.5766 15.1019 19.1071 15.3216C19.6376 15.5414 20.091 15.9135 20.41 16.3909C20.729 16.8684 20.8993 17.4297 20.8993 18.0039C20.8993 18.7739 20.5934 19.5123 20.049 20.0568C19.5045 20.6012 18.7661 20.9071 17.9961 20.9071Z" fill="white"/>
<path d="M22.6467 14.395C23.224 14.395 23.6919 13.9271 23.6919 13.3498C23.6919 12.7726 23.224 12.3047 22.6467 12.3047C22.0695 12.3047 21.6016 12.7726 21.6016 13.3498C21.6016 13.9271 22.0695 14.395 22.6467 14.395Z" fill="white"/>
</svg>
