<svg width="56" height="57" viewBox="0 0 56 57" fill="none" xmlns="http://www.w3.org/2000/svg">
<circle cx="28" cy="28.4531" r="27.5" fill="#FAFAFA" stroke="#E3E3E3"/>
<path d="M37.3333 30.7868C38.622 30.7868 39.6667 29.7421 39.6667 28.4535C39.6667 27.1648 38.622 26.1201 37.3333 26.1201C36.0447 26.1201 35 27.1648 35 28.4535C35 29.7421 36.0447 30.7868 37.3333 30.7868Z" stroke="#12141D" stroke-width="1.5" stroke-linecap="round" stroke-linejoin="round"/>
<path d="M37.3333 21.4528C38.622 21.4528 39.6667 20.4081 39.6667 19.1195C39.6667 17.8308 38.622 16.7861 37.3333 16.7861C36.0447 16.7861 35 17.8308 35 19.1195C35 20.4081 36.0447 21.4528 37.3333 21.4528Z" stroke="#12141D" stroke-width="1.5" stroke-linecap="round" stroke-linejoin="round"/>
<path d="M37.3333 40.1198C38.622 40.1198 39.6667 39.0751 39.6667 37.7865C39.6667 36.4978 38.622 35.4531 37.3333 35.4531C36.0447 35.4531 35 36.4978 35 37.7865C35 39.0751 36.0447 40.1198 37.3333 40.1198Z" stroke="#12141D" stroke-width="1.5" stroke-linecap="round" stroke-linejoin="round"/>
<path d="M18.6693 30.7868C19.9579 30.7868 21.0026 29.7421 21.0026 28.4535C21.0026 27.1648 19.9579 26.1201 18.6693 26.1201C17.3806 26.1201 16.3359 27.1648 16.3359 28.4535C16.3359 29.7421 17.3806 30.7868 18.6693 30.7868Z" stroke="#12141D" stroke-width="1.5" stroke-linecap="round" stroke-linejoin="round"/>
<path d="M21 28.4531H35" stroke="#12141D" stroke-width="1.5" stroke-linecap="round" stroke-linejoin="round"/>
<path d="M35.0026 19.1201H30.3359C28.0026 19.1201 26.8359 20.2868 26.8359 22.6201V34.2868C26.8359 36.6201 28.0026 37.7868 30.3359 37.7868H35.0026" stroke="#12141D" stroke-width="1.5" stroke-linecap="round" stroke-linejoin="round"/>
</svg>
