<svg width="56" height="57" viewBox="0 0 56 57" fill="none" xmlns="http://www.w3.org/2000/svg">
<circle cx="28" cy="28.4531" r="27.5" fill="#FAFAFA" stroke="#E3E3E3"/>
<path d="M27.9635 40.1195C34.4069 40.1195 39.6302 34.8961 39.6302 28.4528C39.6302 22.0095 34.4069 16.7861 27.9635 16.7861C21.5202 16.7861 16.2969 22.0095 16.2969 28.4528C16.2969 34.8961 21.5202 40.1195 27.9635 40.1195Z" stroke="#12141D" stroke-width="1.5" stroke-linecap="round" stroke-linejoin="round"/>
<path d="M28 33.7031C30.8995 33.7031 33.25 31.3526 33.25 28.4531C33.25 25.5536 30.8995 23.2031 28 23.2031C25.1005 23.2031 22.75 25.5536 22.75 28.4531C22.75 31.3526 25.1005 33.7031 28 33.7031Z" stroke="#12141D" stroke-width="1.5" stroke-linecap="round" stroke-linejoin="round"/>
<path d="M19.7188 20.2051L23.8487 24.3234" stroke="#12141D" stroke-width="1.5" stroke-linecap="round" stroke-linejoin="round"/>
<path d="M19.7188 36.7013L23.8487 32.583" stroke="#12141D" stroke-width="1.5" stroke-linecap="round" stroke-linejoin="round"/>
<path d="M36.2237 36.7013L32.0938 32.583" stroke="#12141D" stroke-width="1.5" stroke-linecap="round" stroke-linejoin="round"/>
<path d="M36.2237 20.2051L32.0938 24.3234" stroke="#12141D" stroke-width="1.5" stroke-linecap="round" stroke-linejoin="round"/>
</svg>
