<svg width="56" height="57" viewBox="0 0 56 57" fill="none" xmlns="http://www.w3.org/2000/svg">
<circle cx="28" cy="28.4531" r="28" fill="white"/>
<path d="M27.9974 39.9452C27.7835 39.9452 27.5844 39.9305 27.4001 39.9009C27.215 39.8721 27.0446 39.8286 26.8891 39.7702C24.478 38.8758 22.5043 37.2814 20.9682 34.9869C19.4321 32.6925 18.6641 30.1647 18.6641 27.4036V21.8911C18.6641 21.405 18.8052 20.9675 19.0876 20.5786C19.3691 20.1897 19.7335 19.9077 20.1807 19.7327L27.1807 17.1077C27.453 17.0105 27.7252 16.9619 27.9974 16.9619C28.2696 16.9619 28.5418 17.0105 28.8141 17.1077L35.8141 19.7327C36.2613 19.9077 36.6261 20.1897 36.9084 20.5786C37.19 20.9675 37.3307 21.405 37.3307 21.8911V27.4036C37.3307 30.1647 36.5627 32.6925 35.0266 34.9869C33.4905 37.2814 31.5168 38.8758 29.1057 39.7702C28.9502 39.8286 28.7798 39.8721 28.5947 39.9009C28.4104 39.9305 28.2113 39.9452 27.9974 39.9452ZM27.9974 37.6702C29.8835 37.0869 31.4585 35.935 32.7224 34.2146C33.9863 32.4934 34.7252 30.573 34.9391 28.4536H27.9974V19.2661L20.9974 21.8911V27.9286C20.9974 28.0647 21.0168 28.2397 21.0557 28.4536H27.9974V37.6702Z" fill="#2B59FF"/>
</svg>
