<svg width="56" height="57" viewBox="0 0 56 57" fill="none" xmlns="http://www.w3.org/2000/svg">
<circle cx="28" cy="28.4531" r="27.5" fill="#FAFAFA" stroke="#E3E3E3"/>
<path d="M25.1974 37.7868H30.7974C35.4641 37.7868 37.3307 35.9201 37.3307 31.2534V25.6535C37.3307 20.9868 35.4641 19.1201 30.7974 19.1201H25.1974C20.5307 19.1201 18.6641 20.9868 18.6641 25.6535V31.2534C18.6641 35.9201 20.5307 37.7868 25.1974 37.7868Z" stroke="#12141D" stroke-width="1.5" stroke-linecap="round" stroke-linejoin="round"/>
<path d="M26.2474 34.2868H29.7474C32.6641 34.2868 33.8307 33.1201 33.8307 30.2035V26.7035C33.8307 23.7868 32.6641 22.6201 29.7474 22.6201H26.2474C23.3307 22.6201 22.1641 23.7868 22.1641 26.7035V30.2035C22.1641 33.1201 23.3307 34.2868 26.2474 34.2868Z" stroke="#12141D" stroke-width="1.5" stroke-linecap="round" stroke-linejoin="round"/>
<path d="M23.3438 19.1195V16.7861" stroke="#12141D" stroke-width="1.5" stroke-linecap="round" stroke-linejoin="round"/>
<path d="M28 19.1195V16.7861" stroke="#12141D" stroke-width="1.5" stroke-linecap="round" stroke-linejoin="round"/>
<path d="M32.6641 19.1195V16.7861" stroke="#12141D" stroke-width="1.5" stroke-linecap="round" stroke-linejoin="round"/>
<path d="M37.3359 23.7861H39.6693" stroke="#12141D" stroke-width="1.5" stroke-linecap="round" stroke-linejoin="round"/>
<path d="M37.3359 28.4531H39.6693" stroke="#12141D" stroke-width="1.5" stroke-linecap="round" stroke-linejoin="round"/>
<path d="M37.3359 33.1201H39.6693" stroke="#12141D" stroke-width="1.5" stroke-linecap="round" stroke-linejoin="round"/>
<path d="M32.6641 37.7861V40.1195" stroke="#12141D" stroke-width="1.5" stroke-linecap="round" stroke-linejoin="round"/>
<path d="M28.0156 37.7861V40.1195" stroke="#12141D" stroke-width="1.5" stroke-linecap="round" stroke-linejoin="round"/>
<path d="M23.3438 37.7861V40.1195" stroke="#12141D" stroke-width="1.5" stroke-linecap="round" stroke-linejoin="round"/>
<path d="M16.3359 23.7861H18.6693" stroke="#12141D" stroke-width="1.5" stroke-linecap="round" stroke-linejoin="round"/>
<path d="M16.3359 28.4531H18.6693" stroke="#12141D" stroke-width="1.5" stroke-linecap="round" stroke-linejoin="round"/>
<path d="M16.3359 33.1201H18.6693" stroke="#12141D" stroke-width="1.5" stroke-linecap="round" stroke-linejoin="round"/>
</svg>
