<svg width="56" height="57" viewBox="0 0 56 57" fill="none" xmlns="http://www.w3.org/2000/svg">
<circle cx="28" cy="28.4531" r="27.5" fill="#FAFAFA" stroke="#E3E3E3"/>
<path d="M23.9193 36.5843H23.3359C18.6693 36.5843 16.3359 35.4176 16.3359 29.5843V23.751C16.3359 19.0843 18.6693 16.751 23.3359 16.751H32.6693C37.3359 16.751 39.6693 19.0843 39.6693 23.751V29.5843C39.6693 34.251 37.3359 36.5843 32.6693 36.5843H32.0859C31.7243 36.5843 31.3743 36.7593 31.1526 37.051L29.4026 39.3843C28.6326 40.411 27.3726 40.411 26.6026 39.3843L24.8526 37.051C24.6659 36.7943 24.2459 36.5843 23.9193 36.5843Z" stroke="#12141D" stroke-width="1.5" stroke-miterlimit="10" stroke-linecap="round" stroke-linejoin="round"/>
<path d="M23.3333 24.6025L21 26.9359L23.3333 29.2692" stroke="#12141D" stroke-width="1.5" stroke-miterlimit="10" stroke-linecap="round" stroke-linejoin="round"/>
<path d="M32.6641 24.6025L34.9974 26.9359L32.6641 29.2692" stroke="#12141D" stroke-width="1.5" stroke-miterlimit="10" stroke-linecap="round" stroke-linejoin="round"/>
<path d="M29.1693 24.2178L26.8359 29.6545" stroke="#12141D" stroke-width="1.5" stroke-miterlimit="10" stroke-linecap="round" stroke-linejoin="round"/>
</svg>
