<svg width="40" height="10" viewBox="0 0 154 150" fill="none" xmlns="http://www.w3.org/2000/svg">
<circle cx="75" cy="75" r="75" fill="#12141D"/>
<circle cx="134" cy="32" r="18.5" fill="#12141D" stroke="white" stroke-width="3"/>
<path d="M134.016 39.179C133.138 39.179 132.354 39.0277 131.664 38.7251C130.978 38.4226 130.434 38.0028 130.034 37.4659C129.637 36.9247 129.424 36.2983 129.395 35.5866H131.402C131.427 35.9744 131.557 36.3111 131.792 36.5966C132.03 36.8778 132.341 37.0952 132.725 37.2486C133.108 37.402 133.534 37.4787 134.003 37.4787C134.519 37.4787 134.975 37.3892 135.371 37.2102C135.772 37.0312 136.085 36.782 136.311 36.4624C136.537 36.1385 136.65 35.7656 136.65 35.3438C136.65 34.9048 136.537 34.5192 136.311 34.1868C136.089 33.8501 135.763 33.5859 135.333 33.3942C134.907 33.2024 134.391 33.1065 133.786 33.1065H132.68V31.4957H133.786C134.272 31.4957 134.698 31.4084 135.064 31.2337C135.435 31.0589 135.725 30.8161 135.934 30.505C136.142 30.1896 136.247 29.821 136.247 29.3991C136.247 28.9943 136.155 28.6428 135.972 28.3445C135.793 28.0419 135.537 27.8054 135.205 27.6349C134.877 27.4645 134.489 27.3793 134.042 27.3793C133.615 27.3793 133.217 27.4581 132.846 27.6158C132.48 27.7692 132.181 27.9908 131.951 28.2805C131.721 28.5661 131.598 28.9091 131.581 29.3097H129.669C129.691 28.6023 129.9 27.9801 130.296 27.4432C130.696 26.9062 131.225 26.4865 131.881 26.1839C132.537 25.8814 133.266 25.7301 134.067 25.7301C134.907 25.7301 135.631 25.8942 136.24 26.2223C136.854 26.5462 137.327 26.9787 137.659 27.5199C137.996 28.0611 138.162 28.6534 138.158 29.2969C138.162 30.0298 137.958 30.652 137.544 31.1634C137.135 31.6747 136.59 32.0178 135.908 32.1925V32.2947C136.777 32.4268 137.451 32.772 137.928 33.3303C138.409 33.8885 138.648 34.581 138.644 35.4077C138.648 36.1278 138.448 36.7734 138.043 37.3445C137.642 37.9155 137.095 38.3651 136.4 38.6932C135.706 39.017 134.911 39.179 134.016 39.179Z" fill="#FAFAFA"/>
<path d="M83.5938 77.3438L92.1875 68.75M72.6562 71.0938L78.9062 77.3438M57.8125 81.25L67.9688 71.0938" stroke="#FAFAFA" stroke-width="2" stroke-linecap="round" stroke-linejoin="round"/>
<path d="M94.5312 68.75C95.8257 68.75 96.875 67.7007 96.875 66.4062C96.875 65.1118 95.8257 64.0625 94.5312 64.0625C93.2368 64.0625 92.1875 65.1118 92.1875 66.4062C92.1875 67.7007 93.2368 68.75 94.5312 68.75Z" stroke="#FAFAFA" stroke-width="2" stroke-linecap="round" stroke-linejoin="round"/>
<path d="M81.25 82.0312C82.5444 82.0312 83.5938 80.9819 83.5938 79.6875C83.5938 78.3931 82.5444 77.3438 81.25 77.3438C79.9556 77.3438 78.9062 78.3931 78.9062 79.6875C78.9062 80.9819 79.9556 82.0312 81.25 82.0312Z" stroke="#FAFAFA" stroke-width="2" stroke-linecap="round" stroke-linejoin="round"/>
<path d="M70.3125 71.0938C71.6069 71.0938 72.6562 70.0444 72.6562 68.75C72.6562 67.4556 71.6069 66.4062 70.3125 66.4062C69.0181 66.4062 67.9688 67.4556 67.9688 68.75C67.9688 70.0444 69.0181 71.0938 70.3125 71.0938Z" stroke="#FAFAFA" stroke-width="2" stroke-linecap="round" stroke-linejoin="round"/>
<path d="M55.4688 85.9375C56.7632 85.9375 57.8125 84.8882 57.8125 83.5938C57.8125 82.2993 56.7632 81.25 55.4688 81.25C54.1743 81.25 53.125 82.2993 53.125 83.5938C53.125 84.8882 54.1743 85.9375 55.4688 85.9375Z" stroke="#FAFAFA" stroke-width="2" stroke-linecap="round" stroke-linejoin="round"/>
</svg>
