<svg width="40" height="10" viewBox="0 0 154 150" fill="none" xmlns="http://www.w3.org/2000/svg">
<circle cx="75" cy="75" r="75" fill="#6F4BE5"/>
<circle cx="134" cy="32" r="18.5" fill="#6F4BE5" stroke="white" stroke-width="3"/>
<path d="M129.74 39V37.5682L134.169 32.9787C134.642 32.4801 135.032 32.0433 135.339 31.6683C135.65 31.2891 135.882 30.929 136.036 30.5881C136.189 30.2472 136.266 29.8849 136.266 29.5014C136.266 29.0668 136.164 28.6918 135.959 28.3764C135.755 28.0568 135.475 27.8118 135.122 27.6413C134.768 27.4666 134.37 27.3793 133.926 27.3793C133.458 27.3793 133.049 27.4751 132.699 27.6669C132.35 27.8587 132.081 28.1293 131.894 28.4787C131.706 28.8281 131.613 29.2372 131.613 29.706H129.727C129.727 28.9091 129.91 28.2124 130.277 27.6158C130.643 27.0192 131.146 26.5568 131.785 26.2287C132.424 25.8963 133.151 25.7301 133.965 25.7301C134.787 25.7301 135.512 25.8942 136.138 26.2223C136.769 26.5462 137.261 26.9893 137.615 27.5518C137.968 28.1101 138.145 28.7408 138.145 29.4439C138.145 29.9297 138.054 30.4048 137.87 30.8693C137.691 31.3338 137.378 31.8516 136.931 32.4226C136.483 32.9893 135.861 33.6776 135.064 34.4872L132.463 37.2102V37.3061H138.356V39H129.74Z" fill="#FAFAFA"/>
<path d="M74.616 74.7797C73.626 74.7797 72.6177 74.5963 71.8294 74.248L61.0127 69.4447C58.2627 68.2163 57.8594 66.5663 57.8594 65.668C57.8594 64.7697 58.2627 63.1197 61.0127 61.8913L71.8294 57.088C73.4244 56.373 75.826 56.373 77.421 57.088L88.256 61.8913C90.9877 63.1013 91.4094 64.7697 91.4094 65.668C91.4094 66.5663 91.006 68.2163 88.256 69.4447L77.421 74.248C76.6144 74.6147 75.6244 74.7797 74.616 74.7797ZM74.616 59.3063C73.9927 59.3063 73.3877 59.398 72.9477 59.5997L62.131 64.403C61.0127 64.9163 60.6094 65.4297 60.6094 65.668C60.6094 65.9063 61.0127 66.438 62.1127 66.933L72.9294 71.7363C73.8094 72.1213 75.4044 72.1213 76.2844 71.7363L87.1194 66.933C88.2377 66.438 88.641 65.9063 88.641 65.668C88.641 65.4297 88.2377 64.898 87.1194 64.403L76.3027 59.5997C75.8627 59.4163 75.2394 59.3063 74.616 59.3063Z" fill="#FAFAFA"/>
<path d="M75 84.332C74.3033 84.332 73.6067 84.1853 72.9467 83.892L60.4983 78.3553C58.61 77.5303 57.125 75.2387 57.125 73.167C57.125 72.4153 57.7483 71.792 58.5 71.792C59.2517 71.792 59.875 72.4153 59.875 73.167C59.875 74.1753 60.7 75.4403 61.6167 75.862L74.065 81.3987C74.6517 81.6553 75.33 81.6553 75.935 81.3987L88.3833 75.862C89.3 75.4587 90.125 74.1753 90.125 73.167C90.125 72.4153 90.7483 71.792 91.5 71.792C92.2517 71.792 92.875 72.4153 92.875 73.167C92.875 75.2387 91.39 77.5303 89.5017 78.3737L77.0533 83.9103C76.3933 84.1853 75.6967 84.332 75 84.332Z" fill="#FAFAFA"/>
<path d="M75 93.4988C74.3033 93.4988 73.6067 93.3521 72.9467 93.0588L60.4983 87.5221C58.445 86.6054 57.125 84.5704 57.125 82.3154C57.125 81.5638 57.7483 80.9404 58.5 80.9404C59.2517 80.9404 59.875 81.5821 59.875 82.3338C59.875 83.4888 60.5533 84.5521 61.6167 85.0288L74.065 90.5654C74.6517 90.8221 75.33 90.8221 75.935 90.5654L88.3833 85.0288C89.4467 84.5521 90.125 83.5071 90.125 82.3338C90.125 81.5821 90.7483 80.9588 91.5 80.9588C92.2517 80.9588 92.875 81.5821 92.875 82.3338C92.875 84.5888 91.555 86.6238 89.5017 87.5404L77.0533 93.0771C76.3933 93.3521 75.6967 93.4988 75 93.4988Z" fill="#FAFAFA"/>
</svg>
